# xmcd
#
# Track frame offsets: 
#        150
#        17491
#        35230
#        58271
#        73632
#        94748
#        110829
#        133463
#        154188
#        170357
#
# Disc length: 2495 seconds
#
# Revision: 0
# Processed by: cddbd v1.5.2PL0 Copyright (c) Steve Scherf et al.
# Submitted via: ExactAudioCopy v1.2
#
DISCID=9209bd0a
DTITLE=林宥嘉 - 大小说家
DYEAR=2012
DGENRE=Pop
TTITLE0=思凡
TTITLE1=Runaway Mama
TTITLE2=浪费
TTITLE3=诱
TTITLE4=勉强幸福
TTITLE5=傻子
TTITLE6=拾荒
TTITLE7=我们的倔强 (伴奏)
TTITLE8=周末夜惊魂 (伴奏)
TTITLE9=4号病房 (伴奏)
EXTD=
EXTT0=
EXTT1=
EXTT2=
EXTT3=
EXTT4=
EXTT5=
EXTT6=
EXTT7=
EXTT8=
EXTT9=
PLAYORDER=
